<svg width="22" height="22" viewBox="0 0 22 22" fill="none" xmlns="http://www.w3.org/2000/svg">
<path d="M2.66601 10.1114C2.25181 10.1125 1.84639 10.2309 1.49667 10.4529C1.14695 10.6748 0.867222 10.9913 0.689841 11.3656C0.51246 11.7399 0.444679 12.1568 0.49434 12.568C0.544 12.9792 0.709073 13.368 0.97046 13.6893L6.54261 20.5152C6.74129 20.7619 6.99596 20.9576 7.28547 21.0861C7.57498 21.2146 7.89097 21.2722 8.2072 21.2541C8.88354 21.2177 9.49415 20.8559 9.88346 20.2611L21.4582 1.61989C21.4601 1.61679 21.4621 1.6137 21.4642 1.61065C21.5728 1.4439 21.5375 1.11344 21.3134 0.905839C21.2518 0.84883 21.1792 0.80503 21.1 0.777139C21.0209 0.749248 20.9369 0.737854 20.8532 0.743661C20.7694 0.749468 20.6878 0.772352 20.6133 0.810904C20.5387 0.849455 20.4729 0.902858 20.4197 0.967824C20.4156 0.972932 20.4113 0.977962 20.4069 0.982916L8.73358 14.172C8.68917 14.2222 8.63522 14.2631 8.57487 14.2922C8.51453 14.3214 8.44899 14.3383 8.38207 14.3419C8.31514 14.3455 8.24817 14.3358 8.18503 14.3133C8.12189 14.2908 8.06385 14.256 8.01428 14.2109L4.14012 10.6854C3.73776 10.3166 3.21186 10.1118 2.66601 10.1114Z" fill="#0CB4AE"/>
</svg>
