<svg width="184" height="178" viewBox="0 0 184 178" fill="none" xmlns="http://www.w3.org/2000/svg">
<g clip-path="url(#clip0_514_2)">
<path d="M90.4137 0C70.129 0 53.6836 16.4454 53.6836 36.7301C53.6836 57.0148 70.129 73.4602 90.4137 73.4602C110.698 73.4602 127.144 57.0148 127.144 36.7301C127.144 16.4454 110.698 0 90.4137 0ZM100.964 51.2105C99.3619 53.1604 97.276 54.4754 94.8425 55.1405C93.7844 55.4277 93.3007 55.9869 93.3612 57.0904C93.4065 58.1787 93.3612 59.2518 93.346 60.3401C93.346 61.3075 92.8472 61.8214 91.895 61.8517C91.2753 61.8668 90.6555 61.8819 90.0358 61.8819C89.4917 61.8819 88.9475 61.8819 88.4034 61.8668C87.3755 61.8517 86.8918 61.2622 86.8918 60.2646C86.8767 59.4786 86.8767 58.6775 86.8767 57.8915C86.8616 56.1381 86.8011 56.0776 85.1233 55.8056C82.977 55.4579 80.8608 54.9742 78.8959 54.022C77.3541 53.2662 77.1878 52.8883 77.6262 51.2559C77.9587 50.0466 78.2912 48.8374 78.6691 47.6433C78.9412 46.7666 79.1982 46.3736 79.6667 46.3736C79.9388 46.3736 80.2865 46.5097 80.755 46.7515C82.9316 47.8852 85.2443 48.52 87.6778 48.8223C88.0859 48.8676 88.494 48.8979 88.9022 48.8979C90.0358 48.8979 91.1392 48.6863 92.2124 48.2177C94.918 47.0387 95.3413 43.9098 93.0589 42.0356C92.288 41.4007 91.3962 40.9321 90.4741 40.524C88.101 39.4811 85.6373 38.6951 83.4002 37.3498C79.7725 35.1732 77.475 32.1955 77.7471 27.7819C78.0494 22.7938 80.876 19.6801 85.4559 18.0174C87.3453 17.3372 87.3604 17.3523 87.3604 15.3873C87.3604 14.7223 87.3453 14.0572 87.3755 13.377C87.4209 11.8957 87.6627 11.6388 89.144 11.5934C89.3103 11.5934 89.4917 11.5934 89.6579 11.5934C89.9451 11.5934 90.2323 11.5934 90.5195 11.5934C90.6404 11.5934 90.7613 11.5934 90.8671 11.5934C93.6786 11.5934 93.6786 11.7143 93.6937 14.7525C93.7088 16.9896 93.7088 16.9896 95.9308 17.3372C97.6388 17.6093 99.2561 18.1081 100.828 18.8034C101.69 19.1813 102.022 19.7859 101.75 20.7079C101.357 22.0683 100.979 23.4438 100.556 24.789C100.284 25.6053 100.027 25.9831 99.5433 25.9831C99.2712 25.9831 98.9387 25.8773 98.5155 25.6657C96.3389 24.6077 94.0565 24.0937 91.6683 24.0937C91.3659 24.0937 91.0485 24.1088 90.7462 24.124C90.0358 24.1693 89.3405 24.26 88.6754 24.5472C86.3174 25.575 85.9396 28.1749 87.9499 29.7771C88.9626 30.5933 90.1265 31.1677 91.3206 31.6665C93.4065 32.528 95.4924 33.3594 97.4725 34.4477C103.7 37.9242 105.393 45.8295 100.964 51.2105Z" fill="#3035A6"/>
</g>
<path d="M160.049 69.5864C160.049 69.5864 158.083 77.471 162.016 81.4133C165.95 85.3556 179.717 93.2401 177.75 99.1536C175.783 105.067 173.817 109.009 160.049 107.038C160.049 107.038 150.216 107.038 150.216 128.721C150.216 128.721 150.216 138.576 156.116 148.432C162.016 158.288 173.817 170.115 173.817 170.115C173.817 170.115 183.65 170.115 183.65 176.028V177.999H167.916C167.916 177.999 142.349 162.23 130.548 140.548H122.681C122.681 140.548 114.814 140.548 110.881 148.432L103.014 170.115C103.014 170.115 110.881 168.144 112.847 174.057V177.999H95.1465C95.1465 177.999 93.1798 162.23 101.047 140.548C101.139 140.241 94.14 138.379 93.5869 138.225C87.0876 136.411 80.3176 136.316 73.7809 137.997C71.4224 138.606 68.6103 138.556 66.5775 140.069C64.6044 141.535 64.0128 144.103 62.9158 146.178C61.41 149.027 59.8272 151.748 57.744 154.216C57.4675 154.54 53.9194 158.416 53.8443 158.288L59.7446 168.144C59.7446 168.144 67.6116 168.144 69.5783 174.057V177.999H57.7778C57.7778 177.999 40.077 170.115 38.1103 158.288V140.548C38.1103 140.548 26.3098 146.461 14.5092 156.317C14.5092 156.317 12.5425 162.23 16.476 166.172C16.476 166.172 18.4427 168.144 18.4427 172.086C18.4427 172.086 8.67663 172.086 8.60898 172.086C4.70772 172.086 3.07296 167.287 2.76693 164.213C2.35509 160.049 3.73025 156.021 5.33433 152.24C8.48428 144.819 12.9893 138.105 18.3963 132.15C21.4739 128.761 24.9189 125.892 28.2777 122.807C28.6097 122.504 27.3742 115.893 27.3773 115.289C27.4048 111.472 28.3992 107.827 29.9526 104.363C31.5476 100.81 33.3389 97.0977 32.3434 93.1045C31.3262 89.0282 29.997 84.9396 27.2943 81.647C24.3548 78.0651 20.1141 75.7581 16.3112 73.2311C11.5556 70.0725 7.14414 66.3427 4.29234 61.3104C0.62002 54.8194 -0.881006 47.1043 0.515389 39.748C1.5971 34.0625 3.30897 27.8486 7.50366 23.6355C9.07549 22.057 13.9617 18.4199 16.4756 20.3078C16.4756 20.3078 24.3426 26.2213 14.5088 36.077C4.67507 45.9327 14.5088 59.7307 26.3094 63.673C38.1099 67.6153 42.0434 81.4133 42.0434 87.3267C42.0434 87.3267 51.8772 85.3556 61.7109 85.3556C71.5447 85.3556 97.1125 89.2978 106.946 93.2401C116.78 97.1824 128.581 99.1536 138.414 89.2978L160.049 69.5864Z" fill="#3035A6"/>
<defs>
<clipPath id="clip0_514_2">
<rect width="73.4602" height="73.4602" fill="white" transform="translate(53.6836)"/>
</clipPath>
</defs>
</svg>
