<svg width="185" height="178" viewBox="0 0 185 178" fill="none" xmlns="http://www.w3.org/2000/svg">
<g clip-path="url(#clip0_298_3726)">
<path d="M90.8102 0C70.5255 0 54.0801 16.4454 54.0801 36.7301C54.0801 57.0148 70.5255 73.4602 90.8102 73.4602C111.095 73.4602 127.54 57.0148 127.54 36.7301C127.54 16.4454 111.095 0 90.8102 0ZM101.361 51.2105C99.7584 53.1604 97.6725 54.4754 95.2389 55.1405C94.1809 55.4277 93.6972 55.9869 93.7576 57.0904C93.803 58.1787 93.7576 59.2518 93.7425 60.3401C93.7425 61.3075 93.2437 61.8214 92.2915 61.8517C91.6717 61.8668 91.052 61.8819 90.4323 61.8819C89.8881 61.8819 89.344 61.8819 88.7998 61.8668C87.772 61.8517 87.2883 61.2622 87.2883 60.2646C87.2732 59.4786 87.2732 58.6775 87.2732 57.8915C87.2581 56.1381 87.1976 56.0776 85.5198 55.8056C83.3735 55.4579 81.2573 54.9742 79.2923 54.022C77.7506 53.2662 77.5843 52.8883 78.0227 51.2559C78.3552 50.0466 78.6877 48.8374 79.0656 47.6433C79.3377 46.7666 79.5946 46.3736 80.0632 46.3736C80.3353 46.3736 80.6829 46.5097 81.1515 46.7515C83.3281 47.8852 85.6407 48.52 88.0743 48.8223C88.4824 48.8676 88.8905 48.8979 89.2986 48.8979C90.4323 48.8979 91.5357 48.6863 92.6089 48.2177C95.3145 47.0387 95.7377 43.9098 93.4553 42.0355C92.6845 41.4007 91.7927 40.9321 90.8706 40.524C88.4975 39.4811 86.0337 38.6951 83.7967 37.3498C80.169 35.1732 77.8715 32.1955 78.1436 27.7819C78.4459 22.7938 81.2724 19.6801 85.8524 18.0174C87.7418 17.3372 87.7569 17.3523 87.7569 15.3873C87.7569 14.7223 87.7418 14.0572 87.772 13.377C87.8173 11.8957 88.0592 11.6388 89.5405 11.5934C89.7068 11.5934 89.8881 11.5934 90.0544 11.5934C90.3416 11.5934 90.6288 11.5934 90.916 11.5934C91.0369 11.5934 91.1578 11.5934 91.2636 11.5934C94.0751 11.5934 94.0751 11.7143 94.0902 14.7525C94.1053 16.9896 94.1053 16.9896 96.3272 17.3372C98.0353 17.6093 99.6526 18.1081 101.225 18.8034C102.086 19.1813 102.419 19.7859 102.147 20.7079C101.754 22.0683 101.376 23.4438 100.953 24.789C100.68 25.6053 100.423 25.9831 99.9398 25.9831C99.6677 25.9831 99.3352 25.8773 98.912 25.6657C96.7354 24.6077 94.4529 24.0937 92.0647 24.0937C91.7624 24.0937 91.445 24.1088 91.1427 24.124C90.4323 24.1693 89.737 24.26 89.0719 24.5472C86.7139 25.575 86.3361 28.1749 88.3464 29.7771C89.3591 30.5933 90.523 31.1677 91.7171 31.6665C93.803 32.528 95.8889 33.3594 97.869 34.4477C104.096 37.9242 105.789 45.8295 101.361 51.2105Z" fill="#A6308C" fill-opacity="0.1"/>
</g>
<path d="M160.446 69.5864C160.446 69.5864 158.479 77.471 162.413 81.4133C166.346 85.3556 180.113 93.2401 178.147 99.1536C176.18 105.067 174.213 109.009 160.446 107.038C160.446 107.038 150.612 107.038 150.612 128.721C150.612 128.721 150.612 138.576 156.512 148.432C162.413 158.288 174.213 170.115 174.213 170.115C174.213 170.115 184.047 170.115 184.047 176.028V177.999H168.313C168.313 177.999 142.745 162.23 130.945 140.548H123.078C123.078 140.548 115.211 140.548 111.277 148.432L103.41 170.115C103.41 170.115 111.277 168.144 113.244 174.057V177.999H95.543C95.543 177.999 93.5763 162.23 101.443 140.548C101.535 140.241 94.5364 138.379 93.9834 138.225C87.4841 136.411 80.7141 136.316 74.1774 137.997C71.8189 138.606 69.0068 138.556 66.974 140.069C65.0009 141.535 64.4093 144.103 63.3123 146.178C61.8065 149.027 60.2237 151.748 58.1405 154.216C57.864 154.54 54.3159 158.416 54.2408 158.288L60.1411 168.144C60.1411 168.144 68.0081 168.144 69.9748 174.057V177.999H58.1743C58.1743 177.999 40.4735 170.115 38.5068 158.288V140.548C38.5068 140.548 26.7062 146.461 14.9057 156.317C14.9057 156.317 12.939 162.23 16.8725 166.172C16.8725 166.172 18.8392 168.144 18.8392 172.086C18.8392 172.086 9.07312 172.086 9.00546 172.086C5.10421 172.086 3.46944 167.287 3.16341 164.213C2.75158 160.049 4.12673 156.021 5.73081 152.24C8.88077 144.819 13.3858 138.105 18.7928 132.15C21.8704 128.761 25.3154 125.892 28.6742 122.807C29.0062 122.504 27.7707 115.893 27.7738 115.289C27.8013 111.472 28.7957 107.827 30.3491 104.363C31.9441 100.81 33.7354 97.0976 32.7399 93.1045C31.7226 89.0282 30.3935 84.9396 27.6908 81.647C24.7513 78.0651 20.5106 75.7581 16.7077 73.2311C11.9521 70.0725 7.54062 66.3427 4.68883 61.3104C1.0165 54.8194 -0.484522 47.1043 0.911873 39.748C1.99359 34.0625 3.70545 27.8486 7.90014 23.6355C9.47197 22.057 14.3582 18.4199 16.8721 20.3078C16.8721 20.3078 24.7391 26.2213 14.9053 36.077C5.07156 45.9327 14.9053 59.7307 26.7059 63.673C38.5064 67.6153 42.4399 81.4133 42.4399 87.3267C42.4399 87.3267 52.2737 85.3556 62.1074 85.3556C71.9412 85.3556 97.509 89.2978 107.343 93.2401C117.177 97.1824 128.977 99.1536 138.811 89.2978L160.446 69.5864Z" fill="#A6308C" fill-opacity="0.1"/>
<defs>
<clipPath id="clip0_298_3726">
<rect width="73.4602" height="73.4602" fill="white" transform="translate(54.0801)"/>
</clipPath>
</defs>
</svg>
