<?xml version="1.0" standalone="no"?>
<!DOCTYPE svg PUBLIC "-//W3C//DTD SVG 20010904//EN"
 "http://www.w3.org/TR/2001/REC-SVG-20010904/DTD/svg10.dtd">
<svg version="1.0" xmlns="http://www.w3.org/2000/svg"
 width="735.000000pt" height="712.000000pt" viewBox="0 0 735.000000 712.000000"
 preserveAspectRatio="xMidYMid meet">
<metadata>
Created by potrace 1.16, written by Peter Selinger 2001-2019
</metadata>
<g transform="translate(0.000000,712.000000) scale(0.100000,-0.100000)"
fill="#000000" stroke="none">
<path d="M3385 7104 c-314 -58 -572 -192 -790 -409 -209 -209 -344 -457 -407
-748 -32 -148 -32 -446 0 -594 63 -289 198 -538 403 -742 219 -220 489 -359
800 -412 105 -18 149 -20 289 -16 180 6 260 20 416 72 366 121 683 394 854
734 147 293 191 643 124 970 -103 496 -486 926 -967 1086 -172 57 -234 67
-447 71 -144 2 -216 -1 -275 -12z m354 -463 c11 -7 17 -37 20 -99 4 -50 9 -93
13 -97 3 -4 48 -16 99 -27 108 -23 193 -58 207 -85 7 -13 2 -45 -18 -113 -40
-136 -38 -133 -74 -127 -17 3 -65 18 -106 32 -91 33 -226 44 -295 25 -97 -27
-138 -130 -79 -199 34 -40 85 -70 209 -121 227 -95 316 -160 378 -278 92 -175
66 -360 -69 -502 -55 -58 -173 -130 -213 -130 -10 0 -26 -6 -37 -14 -16 -12
-20 -31 -24 -121 -5 -90 -8 -109 -25 -121 -25 -18 -184 -19 -207 -1 -12 9 -17
35 -20 105 -2 51 -9 97 -15 103 -6 6 -55 20 -109 31 -103 20 -205 57 -236 85
-24 21 -23 51 6 150 27 91 42 123 57 123 6 0 41 -13 77 -29 104 -45 188 -64
287 -65 77 -1 97 3 140 24 123 62 128 192 10 271 -22 15 -100 52 -173 82 -163
68 -230 107 -297 173 -96 95 -133 218 -106 356 32 160 116 248 322 336 l46 20
6 102 c3 70 10 105 19 111 18 12 189 11 207 0z"/>
<path d="M508 6311 c-26 -11 -76 -39 -111 -64 -163 -116 -260 -284 -333 -572
-74 -295 -69 -519 16 -777 59 -177 145 -321 269 -451 104 -108 193 -179 414
-324 343 -226 443 -356 528 -683 43 -164 34 -227 -68 -465 -107 -247 -130
-388 -98 -596 9 -63 15 -128 13 -144 -2 -25 -34 -59 -169 -182 -312 -285 -522
-561 -690 -908 -122 -252 -167 -420 -156 -578 10 -142 61 -253 139 -304 l41
-28 230 -3 229 -3 -7 58 c-8 70 -44 152 -86 201 -68 77 -97 181 -84 299 6 57
11 71 39 96 57 54 328 253 476 350 131 86 420 257 434 257 3 0 7 -172 8 -383
3 -372 4 -383 26 -439 83 -204 298 -414 614 -597 l113 -66 253 -3 252 -3 0 86
c0 99 -15 138 -77 196 -54 52 -133 89 -232 108 l-86 17 -108 179 c-60 99 -111
186 -114 193 -3 6 27 45 65 85 133 136 220 266 317 471 61 129 97 175 158 204
23 10 128 37 232 58 183 38 197 39 390 39 130 0 225 -5 270 -14 85 -17 417
-109 427 -119 4 -4 -13 -69 -37 -145 -79 -245 -136 -500 -171 -762 -16 -122
-31 -527 -20 -569 l6 -26 355 0 355 0 0 85 c0 108 -20 153 -88 196 -64 41
-112 51 -212 47 l-86 -3 159 435 c87 239 172 456 188 482 42 66 147 161 212
192 97 48 147 56 347 56 l185 0 60 -100 c74 -124 231 -336 347 -467 252 -287
633 -619 981 -856 l98 -67 314 0 315 0 0 81 c0 66 -4 86 -21 110 -41 58 -163
110 -290 124 l-66 7 -80 82 c-192 195 -426 478 -555 671 -238 354 -339 730
-299 1119 27 255 94 439 200 545 89 89 118 97 296 82 333 -28 482 39 566 252
40 100 43 163 12 227 -49 98 -169 217 -388 385 -204 156 -243 193 -275 258
-42 87 -56 189 -42 302 7 49 10 90 9 92 -2 1 -221 -196 -488 -439 -266 -243
-515 -461 -553 -486 -149 -97 -310 -142 -503 -142 -187 0 -322 30 -622 139
-276 101 -804 207 -1351 273 -337 40 -717 30 -1088 -30 l-112 -18 0 37 c0 100
-60 310 -126 441 -57 113 -110 186 -198 273 -98 96 -156 131 -325 200 -221 89
-400 230 -505 398 -158 253 -138 479 60 697 129 143 178 233 190 349 11 101
-47 238 -120 282 -39 24 -106 24 -168 0z"/>
</g>
</svg>
