<svg width="22" height="21" viewBox="0 0 22 21" fill="none" xmlns="http://www.w3.org/2000/svg">
<path d="M2.1875 9.36917C1.77329 9.37034 1.36788 9.48874 1.01816 9.7107C0.668437 9.93266 0.388706 10.2491 0.211325 10.6234C0.0339446 10.9977 -0.0338363 11.4146 0.0158243 11.8258C0.0654848 12.237 0.230557 12.6258 0.491944 12.9471L6.0641 19.773C6.26277 20.0197 6.51744 20.2154 6.80695 20.3439C7.09646 20.4724 7.41245 20.53 7.72868 20.5119C8.40502 20.4755 9.01564 20.1137 9.40494 19.5189L20.9797 0.877698C20.9816 0.874605 20.9836 0.871513 20.9856 0.868467C21.0942 0.701713 21.059 0.371252 20.8349 0.163652C20.7733 0.106642 20.7007 0.062843 20.6215 0.0349516C20.5424 0.00706011 20.4584 -0.00433314 20.3746 0.00147372C20.2909 0.00728058 20.2093 0.0301646 20.1347 0.0687162C20.0602 0.107268 19.9943 0.160671 19.9412 0.225636C19.9371 0.230744 19.9328 0.235775 19.9284 0.240729L8.25507 13.4298C8.21065 13.48 8.1567 13.5209 8.09636 13.5501C8.03601 13.5792 7.97047 13.5961 7.90355 13.5997C7.83663 13.6033 7.76965 13.5936 7.70651 13.5711C7.64337 13.5487 7.58533 13.5138 7.53576 13.4687L3.66161 9.94324C3.25924 9.57439 2.73334 9.36959 2.1875 9.36917Z" fill="#A6308C"/>
</svg>
