<svg width="183" height="183" viewBox="0 0 183 183" fill="none" xmlns="http://www.w3.org/2000/svg">
<path d="M172.455 152.238L158.687 138.47C155.813 135.596 155.209 131.148 157.272 127.647C166.689 111.663 170.94 92.2988 167.542 71.7988C161.637 36.1705 132.244 8.00504 96.4083 3.52497C42.3833 -3.22887 -3.22887 42.3833 3.52497 96.4083C8.00504 132.244 36.1705 161.637 71.7988 167.542C92.2988 170.94 111.663 166.689 127.647 157.272C131.149 155.209 135.596 155.813 138.47 158.687L152.876 173.093C155.665 175.885 159.327 177.281 162.984 177.281C166.99 177.281 170.999 175.607 173.864 172.259C178.818 166.468 177.844 157.627 172.455 152.238ZM32.2159 94.9969C26.078 57.8731 57.8731 26.0786 94.9964 32.2165C117.488 35.9348 135.627 54.0747 139.346 76.566C145.484 113.69 113.689 145.484 76.5654 139.346C54.0747 135.628 35.9348 117.488 32.2159 94.9969Z" fill="#A6308C" fill-opacity="0.1"/>
</svg>
