<svg width="64" height="64" viewBox="0 0 64 64" fill="none" xmlns="http://www.w3.org/2000/svg">
<path d="M60.3122 53.2418L55.497 48.4266C54.492 47.4216 54.2808 45.866 55.0022 44.6416C58.2956 39.0516 59.7822 32.2794 58.594 25.11C56.5288 12.6498 46.2494 2.79958 33.7166 1.23278C14.8226 -1.12922 -1.12922 14.8226 1.23278 33.7166C2.79958 46.2494 12.6498 56.5288 25.11 58.594C32.2794 59.7822 39.0516 58.2956 44.6416 55.0022C45.8662 54.2808 47.4216 54.492 48.4266 55.497L53.4648 60.5352C54.4404 61.5118 55.7208 62 57 62C58.4008 62 59.8028 61.4146 60.8048 60.2436C62.5374 58.2184 62.1968 55.1264 60.3122 53.2418ZM11.2668 33.223C9.12018 20.2398 20.2398 9.12038 33.2228 11.267C41.0886 12.5674 47.4324 18.9114 48.733 26.7772C50.8796 39.7604 39.76 50.8798 26.777 48.7332C18.9114 47.4326 12.5674 41.0886 11.2668 33.223Z" fill="#3035A6"/>
</svg>
