<?xml version="1.0" standalone="no"?>
<!DOCTYPE svg PUBLIC "-//W3C//DTD SVG 20010904//EN"
 "http://www.w3.org/TR/2001/REC-SVG-20010904/DTD/svg10.dtd">
<svg version="1.0" xmlns="http://www.w3.org/2000/svg"
 width="732.000000pt" height="732.000000pt" viewBox="0 0 732.000000 732.000000"
 preserveAspectRatio="xMidYMid meet">
<metadata>
Created by potrace 1.16, written by Peter Selinger 2001-2019
</metadata>
<g transform="translate(0.000000,732.000000) scale(0.100000,-0.100000)"
fill="#000000" stroke="none">
<path d="M3150 7199 c-1149 -101 -2159 -783 -2680 -1810 -182 -358 -285 -704
-342 -1139 -16 -129 -16 -586 0 -725 123 -1030 677 -1908 1552 -2460 142 -89
435 -233 601 -294 260 -96 583 -167 878 -192 176 -15 539 -6 700 16 441 61
794 183 1255 432 67 37 73 38 170 38 155 0 150 3 556 -400 324 -322 350 -344
420 -378 97 -45 165 -60 270 -59 186 1 361 96 464 250 115 174 124 389 25 592
-40 82 -54 97 -374 420 -392 395 -390 392 -390 545 l0 100 81 150 c282 520
414 1031 414 1605 0 758 -236 1444 -706 2050 -106 137 -391 426 -524 531 -551
435 -1146 673 -1823 728 -146 12 -407 12 -547 0z m597 -1164 c619 -91 1160
-441 1513 -980 79 -121 183 -338 229 -480 258 -790 58 -1630 -528 -2216 -358
-358 -787 -565 -1291 -624 -1096 -129 -2128 614 -2359 1697 -34 160 -45 277
-45 463 1 347 66 628 219 940 118 243 238 411 424 595 342 338 791 557 1251
609 52 6 111 13 130 15 69 8 351 -4 457 -19z"/>
</g>
</svg>
