<svg width="181" height="181" viewBox="0 0 181 181" fill="none" xmlns="http://www.w3.org/2000/svg">
<g clip-path="url(#clip0_298_3695)">
<path d="M96.4688 138.809C96.4688 162.073 115.429 181 138.735 181C162.041 181 181 162.073 181 138.809C181 115.544 162.04 96.6172 138.734 96.6172C115.429 96.6172 96.4688 115.544 96.4688 138.809ZM114.865 124.824C114.865 121.715 117.389 119.195 120.503 119.195C123.617 119.195 126.142 121.715 126.142 124.824C126.142 127.933 123.617 130.453 120.503 130.453C117.389 130.453 114.865 127.933 114.865 124.824ZM152.663 162.418C149.433 164.569 145.362 164.963 141.773 163.471C139.637 162.582 137.156 162.582 135.018 163.471C133.578 164.07 132.059 164.365 130.547 164.365C128.302 164.366 126.074 163.714 124.142 162.439C120.946 160.329 119.022 156.792 118.994 152.978V152.937L118.993 152.836C118.993 147.65 121.02 142.778 124.699 139.118C128.363 135.472 133.225 133.467 138.395 133.467H138.462C148.746 133.501 157.228 141.55 157.771 151.792C157.79 152.137 157.799 152.486 157.799 152.83C157.801 156.69 155.881 160.275 152.663 162.418ZM156.966 119.195C160.08 119.195 162.604 121.715 162.604 124.824C162.604 127.933 160.08 130.453 156.966 130.453C153.852 130.453 151.327 127.932 151.327 124.824C151.327 121.715 153.852 119.195 156.966 119.195ZM144.035 117.176C144.035 120.285 141.511 122.805 138.396 122.805C135.282 122.805 132.758 120.284 132.758 117.176C132.758 114.067 135.282 111.547 138.396 111.547C141.511 111.547 144.035 114.067 144.035 117.176Z" fill="#A6308C" fill-opacity="0.1"/>
<path d="M138.423 144.725C136.262 144.713 134.2 145.558 132.659 147.091C131.118 148.624 130.27 150.664 130.27 152.836L130.27 152.896C130.27 152.95 130.27 152.989 130.363 153.05C130.513 153.149 130.63 153.1 130.68 153.079C133.131 152.06 135.726 151.544 138.395 151.544C141.064 151.544 143.658 152.06 146.108 153.078C146.167 153.103 146.266 153.145 146.403 153.054C146.521 152.975 146.521 152.9 146.521 152.833C146.521 152.684 146.517 152.536 146.509 152.389C146.285 148.176 142.658 144.739 138.423 144.725Z" fill="#A6308C" fill-opacity="0.1"/>
<path d="M85.1909 138.809C85.1909 109.337 109.21 85.3602 138.734 85.3602C149.227 85.3602 159.024 88.3916 167.296 93.6194V59.2436C167.296 56.1347 164.771 53.6149 161.657 53.6149H113.586V5.62868C113.586 2.51986 111.062 0 107.948 0H59.3486C56.2344 0 53.71 2.52021 53.71 5.62868V53.6149H5.63857C2.52446 53.6149 0 56.1351 0 59.2436V107.757C0 110.865 2.52446 113.385 5.63857 113.385H53.7096V161.371C53.7096 164.48 56.2341 167 59.3482 167H93.2645C88.1509 158.811 85.1909 149.149 85.1909 138.809Z" fill="#A6308C" fill-opacity="0.1"/>
</g>
<defs>
<clipPath id="clip0_298_3695">
<rect width="181" height="181" fill="white"/>
</clipPath>
</defs>
</svg>
