<svg xmlns="http://www.w3.org/2000/svg" version="1.1" xmlns:xlink="http://www.w3.org/1999/xlink" width="512" height="512" x="0" y="0" viewBox="0 0 512 512" style="enable-background:new 0 0 512 512" xml:space="preserve" class=""><g><path d="M272.883 392.653c0 65.808 53.633 119.347 119.559 119.347S512 458.462 512 392.653s-53.633-119.348-119.559-119.348-119.558 53.54-119.558 119.348zm52.037-39.559c0-8.794 7.141-15.922 15.95-15.922s15.95 7.129 15.95 15.922c0 8.794-7.141 15.922-15.95 15.922s-15.95-7.128-15.95-15.922zm106.92 106.345a32.772 32.772 0 0 1-30.804 2.976c-6.042-2.513-13.059-2.513-19.107.002a32.854 32.854 0 0 1-30.765-2.919c-9.041-5.969-14.485-15.974-14.564-26.763v-.116l-.001-.287c0-14.668 5.732-28.45 16.14-38.805 10.364-10.311 24.117-15.983 38.743-15.983h.188c29.092.096 53.084 22.865 54.621 51.835.053.976.079 1.965.079 2.937a32.51 32.51 0 0 1-14.53 27.123zm12.173-122.267c8.809 0 15.95 7.129 15.95 15.922 0 8.794-7.141 15.922-15.95 15.922s-15.95-7.129-15.95-15.922 7.141-15.922 15.95-15.922zm-36.578-5.712c0 8.794-7.141 15.922-15.95 15.922s-15.95-7.129-15.95-15.922c0-8.794 7.141-15.922 15.95-15.922s15.95 7.128 15.95 15.922z" fill="#3035a6" opacity="1" data-original="#000000"></path><path d="M391.564 409.388a22.879 22.879 0 0 0-16.306 6.693c-4.358 4.337-6.759 10.108-6.759 16.251l.001.171c.001.152.001.262.263.434.424.28.756.142.897.083 6.934-2.882 14.275-4.343 21.824-4.343s14.888 1.461 21.817 4.341c.168.07.449.188.836-.069.332-.222.332-.436.332-.626 0-.421-.011-.838-.033-1.256-.633-11.916-10.892-21.64-22.872-21.679zM240.982 392.653c0-83.367 67.944-151.192 151.459-151.192 29.683 0 57.395 8.575 80.793 23.363v-97.24c0-8.794-7.141-15.922-15.95-15.922H321.305V15.922c0-8.794-7.141-15.922-15.95-15.922H167.881c-8.809 0-15.95 7.129-15.95 15.922v135.74H15.95c-8.809 0-15.95 7.129-15.95 15.922v137.23c0 8.794 7.141 15.922 15.95 15.922h135.98v135.74c0 8.794 7.141 15.922 15.95 15.922h95.94c-14.465-23.164-22.838-50.495-22.838-79.745z" fill="#3035a6" opacity="1" data-original="#000000"></path></g></svg>