<?xml version="1.0" standalone="no"?>
<!DOCTYPE svg PUBLIC "-//W3C//DTD SVG 20010904//EN"
 "http://www.w3.org/TR/2001/REC-SVG-20010904/DTD/svg10.dtd">
<svg version="1.0" xmlns="http://www.w3.org/2000/svg"
 width="724.000000pt" height="724.000000pt" viewBox="0 0 724.000000 724.000000"
 preserveAspectRatio="xMidYMid meet">
<metadata>
Created by potrace 1.16, written by Peter Selinger 2001-2019
</metadata>
<g transform="translate(0.000000,724.000000) scale(0.100000,-0.100000)"
fill="#000000" stroke="none">
<path d="M2280 7224 c-45 -20 -86 -59 -113 -109 l-22 -40 -3 -987 -2 -988
-993 -2 -992 -3 -48 -28 c-33 -19 -56 -44 -77 -80 l-30 -52 0 -1034 0 -1033
26 -49 c29 -52 80 -93 135 -109 21 -6 403 -10 1006 -10 l973 0 2 -987 3 -988
22 -40 c11 -22 34 -52 50 -67 63 -60 37 -58 808 -58 388 0 705 3 705 6 0 3
-19 37 -41 76 -121 207 -212 471 -255 743 -24 151 -25 448 -1 603 73 472 273
869 606 1203 328 329 706 524 1176 606 127 22 518 25 640 5 276 -46 528 -134
749 -261 49 -28 91 -51 93 -51 2 0 2 323 1 718 l-3 717 -24 48 c-25 52 -71 92
-128 113 -31 11 -225 13 -1015 14 l-978 0 0 968 c0 1080 3 1036 -67 1104 -74
73 2 68 -1140 68 -896 -1 -1032 -3 -1063 -16z"/>
<path d="M5357 3369 c-575 -66 -1078 -423 -1332 -944 -255 -523 -220 -1151 92
-1642 162 -256 430 -493 703 -622 498 -233 1083 -214 1555 51 144 81 252 164
375 287 141 142 230 265 315 436 71 145 114 264 147 418 20 89 22 131 22 337
0 262 -10 329 -79 537 -231 690 -888 1159 -1615 1151 -63 0 -146 -4 -183 -9z
m272 -618 c92 -47 146 -157 122 -247 -22 -82 -82 -143 -164 -165 -57 -15 -119
-3 -174 34 -140 95 -123 301 32 381 43 22 137 21 184 -3z m-738 -296 c172 -61
200 -291 47 -392 -36 -25 -51 -28 -119 -28 -70 0 -82 3 -121 30 -55 38 -98
119 -98 184 1 114 104 219 216 221 17 0 51 -7 75 -15z m1453 3 c58 -18 128
-90 145 -151 38 -134 -53 -265 -190 -275 -179 -13 -293 156 -213 316 49 98
151 141 258 110z m-626 -583 c156 -36 325 -147 425 -277 108 -141 160 -293
160 -463 0 -153 -42 -249 -153 -348 -129 -116 -300 -145 -477 -83 -97 35 -179
35 -276 0 -183 -64 -352 -32 -487 93 -110 101 -159 246 -140 408 41 356 303
629 655 685 75 11 208 4 293 -15z"/>
<path d="M5477 1449 c-139 -22 -252 -143 -265 -283 -4 -53 -3 -59 12 -53 114
44 163 52 316 52 141 -1 162 -3 235 -28 44 -14 83 -23 86 -19 12 12 -9 108
-34 158 -64 125 -208 196 -350 173z"/>
</g>
</svg>
